<svg xmlns="http://www.w3.org/2000/svg" xmlns:xlink="http://www.w3.org/1999/xlink" width="752.039" height="355.078" viewBox="0 0 752.039 355.078">
  <defs>
    <linearGradient id="linear-gradient" x1="0.831" y1="0.169" x2="-0.245" y2="1.245" gradientUnits="objectBoundingBox">
      <stop offset="0" stop-color="#4b5b99"/>
      <stop offset="1" stop-color="#333d68"/>
    </linearGradient>
    <linearGradient id="linear-gradient-2" x1="0.831" y1="0.169" x2="-0.245" y2="1.245" gradientUnits="objectBoundingBox">
      <stop offset="0" stop-color="#576ab3"/>
      <stop offset="1" stop-color="#333d68"/>
    </linearGradient>
    <linearGradient id="linear-gradient-3" x1="0.831" y1="0.169" x2="-0.245" y2="1.245" gradientUnits="objectBoundingBox">
      <stop offset="0" stop-color="#657acf"/>
      <stop offset="1" stop-color="#333d68"/>
    </linearGradient>
    <filter id="Path_2" x="146.332" y="60.469" width="91.445" height="91.445" filterUnits="userSpaceOnUse">
      <feOffset dy="3" input="SourceAlpha"/>
      <feGaussianBlur stdDeviation="3" result="blur"/>
      <feFlood flood-opacity="0.161"/>
      <feComposite operator="in" in2="blur"/>
      <feComposite in="SourceGraphic"/>
    </filter>
    <filter id="Path_5" x="54.073" y="57.599" width="174.933" height="174.933" filterUnits="userSpaceOnUse">
      <feOffset dy="3" input="SourceAlpha"/>
      <feGaussianBlur stdDeviation="3" result="blur-2"/>
      <feFlood flood-opacity="0.161"/>
      <feComposite operator="in" in2="blur-2"/>
      <feComposite in="SourceGraphic"/>
    </filter>
    <filter id="Path_3" x="44.39" y="137.76" width="91.445" height="91.445" filterUnits="userSpaceOnUse">
      <feOffset dy="3" input="SourceAlpha"/>
      <feGaussianBlur stdDeviation="3" result="blur-3"/>
      <feFlood flood-opacity="0.161"/>
      <feComposite operator="in" in2="blur-3"/>
      <feComposite in="SourceGraphic"/>
    </filter>
  </defs>
  <g id="Component_5_1" data-name="Component 5 – 1" transform="translate(7.07 7.07)">
    <g id="Component_4_1" data-name="Component 4 – 1">
      <g id="Component_3_3" data-name="Component 3 – 3" transform="translate(0 72)">
        <g id="Group_3" data-name="Group 3" transform="translate(-0.382 134.469) rotate(-45)">
          <g id="Group_1" data-name="Group 1" transform="translate(0 0)">
            <g id="Path_4" data-name="Path 4" transform="translate(0 0)" fill="url(#linear-gradient)">
              <path d="M 169.4232940673828 192.9383697509766 C 167.7721099853516 192.9383697509766 166.0623474121094 192.8000640869141 164.3414764404297 192.5272369384766 L 52.80795288085938 174.8459014892578 C 48.4622688293457 174.156982421875 44.1239013671875 172.6442413330078 39.91332244873047 170.3496856689453 C 35.87911224365234 168.1512451171875 32.12421417236328 165.3271331787109 28.75287437438965 161.9557952880859 C 25.38155746459961 158.58447265625 22.55745315551758 154.82958984375 20.35897827148438 150.7953796386719 C 18.06442642211914 146.5848236083984 16.55168914794922 142.2464599609375 15.86276817321777 137.9007720947266 L -1.818547487258911 26.36724281311035 C -3.107573747634888 18.23616218566895 -1.32452118396759 10.83892631530762 3.202136754989624 5.53813648223877 C 7.479742050170898 0.5289788246154785 13.90184688568115 -2.229679107666016 21.28542709350586 -2.229679107666016 C 22.93661117553711 -2.229679107666016 24.6463737487793 -2.091363191604614 26.36724281311035 -1.818547487258911 L 137.9007720947266 15.86276817321777 C 142.2464599609375 16.55168914794922 146.5848236083984 18.06442642211914 150.7953796386719 20.35897827148438 C 154.82958984375 22.55745315551758 158.58447265625 25.38155746459961 161.9557952880859 28.75287437438965 C 165.3271331787109 32.12421417236328 168.1512451171875 35.87911224365234 170.3496856689453 39.91332244873047 C 172.6442413330078 44.1239013671875 174.156982421875 48.4622688293457 174.8459014892578 52.80795288085938 L 192.5272369384766 164.3414764404297 C 193.8162689208984 172.4725341796875 192.0332183837891 179.8697662353516 187.5065765380859 185.1705627441406 C 183.2289581298828 190.1797180175781 176.8068695068359 192.9383697509766 169.4232940673828 192.9383697509766 Z" stroke="none"/>
              <path d="M 21.285400390625 0.2703094482421875 C 7.28143310546875 0.2703094482421875 -1.72821044921875 10.97016906738281 0.6506195068359375 25.97578430175781 L 18.33193969726562 137.5093231201172 C 20.96693420410156 154.1310272216797 36.57763671875 169.74169921875 53.19940185546875 172.3767242431641 L 164.73291015625 190.0580749511719 C 166.3490142822266 190.3142852783203 167.9150390625 190.4383850097656 169.4232788085938 190.4383850097656 C 183.4272308349609 190.4383850097656 192.4369049072266 179.7384948730469 190.0580749511719 164.73291015625 L 172.3767242431641 53.19940185546875 C 169.74169921875 36.57763671875 154.1310272216797 20.96696472167969 137.5093231201172 18.33193969726562 L 25.97578430175781 0.6506195068359375 C 24.35968017578125 0.3944091796875 22.79364013671875 0.2703094482421875 21.285400390625 0.2703094482421875 M 21.285400390625 -4.72967529296875 C 23.06732177734375 -4.72967529296875 24.90878295898438 -4.580978393554688 26.7586669921875 -4.287704467773438 L 138.2922058105469 13.39361572265625 C 147.3656616210938 14.83203125 156.3973693847656 19.65890502929688 163.7235565185547 26.985107421875 C 171.0497589111328 34.31132507324219 175.8766479492188 43.34304809570312 177.3150482177734 52.41651916503906 L 194.9963989257812 163.9500274658203 C 196.4017944335938 172.8152008056641 194.4170227050781 180.9280242919922 189.4076995849609 186.7940216064453 C 184.6473693847656 192.368408203125 177.5501098632812 195.4383697509766 169.4232940673828 195.4383697509766 C 167.6413726806641 195.4383697509766 165.7999114990234 195.2896728515625 163.9500274658203 194.9963989257812 L 52.41651916503906 177.3150482177734 C 43.34304809570312 175.8766479492188 34.31132507324219 171.0497589111328 26.985107421875 163.7235565185547 C 19.65887451171875 156.3973388671875 14.83200073242188 147.3656463623047 13.39361572265625 138.2921752929688 L -4.287704467773438 26.7586669921875 C -5.693099975585938 17.89349365234375 -3.708328247070312 9.780670166015625 1.300994873046875 3.914642333984375 C 6.061294555664062 -1.659744262695312 13.15855407714844 -4.72967529296875 21.285400390625 -4.72967529296875 Z" stroke="none" fill="#fff"/>
            </g>
          </g>
        </g>
      </g>
      <g id="Component_3_5" data-name="Component 3 – 5" transform="translate(0 34)">
        <g id="Group_3-2" data-name="Group 3" transform="translate(-0.382 134.469) rotate(-45)">
          <g id="Group_1-2" data-name="Group 1" transform="translate(0 0)">
            <g id="Path_4-2" data-name="Path 4" transform="translate(0 0)" fill="url(#linear-gradient-2)">
              <path d="M 169.4232940673828 192.9383697509766 C 167.7721099853516 192.9383697509766 166.0623474121094 192.8000640869141 164.3414764404297 192.5272369384766 L 52.80795288085938 174.8459014892578 C 48.4622688293457 174.156982421875 44.1239013671875 172.6442413330078 39.91332244873047 170.3496856689453 C 35.87911224365234 168.1512451171875 32.12421417236328 165.3271331787109 28.75287437438965 161.9557952880859 C 25.38155746459961 158.58447265625 22.55745315551758 154.82958984375 20.35897827148438 150.7953796386719 C 18.06442642211914 146.5848236083984 16.55168914794922 142.2464599609375 15.86276817321777 137.9007720947266 L -1.818547487258911 26.36724281311035 C -3.107573747634888 18.23616218566895 -1.32452118396759 10.83892631530762 3.202136754989624 5.53813648223877 C 7.479742050170898 0.5289788246154785 13.90184688568115 -2.229679107666016 21.28542709350586 -2.229679107666016 C 22.93661117553711 -2.229679107666016 24.6463737487793 -2.091363191604614 26.36724281311035 -1.818547487258911 L 137.9007720947266 15.86276817321777 C 142.2464599609375 16.55168914794922 146.5848236083984 18.06442642211914 150.7953796386719 20.35897827148438 C 154.82958984375 22.55745315551758 158.58447265625 25.38155746459961 161.9557952880859 28.75287437438965 C 165.3271331787109 32.12421417236328 168.1512451171875 35.87911224365234 170.3496856689453 39.91332244873047 C 172.6442413330078 44.1239013671875 174.156982421875 48.4622688293457 174.8459014892578 52.80795288085938 L 192.5272369384766 164.3414764404297 C 193.8162689208984 172.4725341796875 192.0332183837891 179.8697662353516 187.5065765380859 185.1705627441406 C 183.2289581298828 190.1797180175781 176.8068695068359 192.9383697509766 169.4232940673828 192.9383697509766 Z" stroke="none"/>
              <path d="M 21.285400390625 0.2703094482421875 C 7.28143310546875 0.2703094482421875 -1.72821044921875 10.97016906738281 0.6506195068359375 25.97578430175781 L 18.33193969726562 137.5093231201172 C 20.96693420410156 154.1310272216797 36.57763671875 169.74169921875 53.19940185546875 172.3767242431641 L 164.73291015625 190.0580749511719 C 166.3490142822266 190.3142852783203 167.9150390625 190.4383850097656 169.4232788085938 190.4383850097656 C 183.4272308349609 190.4383850097656 192.4369049072266 179.7384948730469 190.0580749511719 164.73291015625 L 172.3767242431641 53.19940185546875 C 169.74169921875 36.57763671875 154.1310272216797 20.96696472167969 137.5093231201172 18.33193969726562 L 25.97578430175781 0.6506195068359375 C 24.35968017578125 0.3944091796875 22.79364013671875 0.2703094482421875 21.285400390625 0.2703094482421875 M 21.285400390625 -4.72967529296875 C 23.06732177734375 -4.72967529296875 24.90878295898438 -4.580978393554688 26.7586669921875 -4.287704467773438 L 138.2922058105469 13.39361572265625 C 147.3656616210938 14.83203125 156.3973693847656 19.65890502929688 163.7235565185547 26.985107421875 C 171.0497589111328 34.31132507324219 175.8766479492188 43.34304809570312 177.3150482177734 52.41651916503906 L 194.9963989257812 163.9500274658203 C 196.4017944335938 172.8152008056641 194.4170227050781 180.9280242919922 189.4076995849609 186.7940216064453 C 184.6473693847656 192.368408203125 177.5501098632812 195.4383697509766 169.4232940673828 195.4383697509766 C 167.6413726806641 195.4383697509766 165.7999114990234 195.2896728515625 163.9500274658203 194.9963989257812 L 52.41651916503906 177.3150482177734 C 43.34304809570312 175.8766479492188 34.31132507324219 171.0497589111328 26.985107421875 163.7235565185547 C 19.65887451171875 156.3973388671875 14.83200073242188 147.3656463623047 13.39361572265625 138.2921752929688 L -4.287704467773438 26.7586669921875 C -5.693099975585938 17.89349365234375 -3.708328247070312 9.780670166015625 1.300994873046875 3.914642333984375 C 6.061294555664062 -1.659744262695312 13.15855407714844 -4.72967529296875 21.285400390625 -4.72967529296875 Z" stroke="none" fill="#fff"/>
            </g>
          </g>
        </g>
      </g>
      <g id="Component_3_1" data-name="Component 3 – 1">
        <g id="Group_3-3" data-name="Group 3" transform="translate(-0.382 134.469) rotate(-45)">
          <g id="Group_1-3" data-name="Group 1" transform="translate(0 0)">
            <g id="Path_4-3" data-name="Path 4" transform="translate(0 0)" fill="url(#linear-gradient-3)">
              <path d="M 169.4232940673828 192.9383697509766 C 167.7721099853516 192.9383697509766 166.0623474121094 192.8000640869141 164.3414764404297 192.5272369384766 L 52.80795288085938 174.8459014892578 C 48.4622688293457 174.156982421875 44.1239013671875 172.6442413330078 39.91332244873047 170.3496856689453 C 35.87911224365234 168.1512451171875 32.12421417236328 165.3271331787109 28.75287437438965 161.9557952880859 C 25.38155746459961 158.58447265625 22.55745315551758 154.82958984375 20.35897827148438 150.7953796386719 C 18.06442642211914 146.5848236083984 16.55168914794922 142.2464599609375 15.86276817321777 137.9007720947266 L -1.818547487258911 26.36724281311035 C -3.107573747634888 18.23616218566895 -1.32452118396759 10.83892631530762 3.202136754989624 5.53813648223877 C 7.479742050170898 0.5289788246154785 13.90184688568115 -2.229679107666016 21.28542709350586 -2.229679107666016 C 22.93661117553711 -2.229679107666016 24.6463737487793 -2.091363191604614 26.36724281311035 -1.818547487258911 L 137.9007720947266 15.86276817321777 C 142.2464599609375 16.55168914794922 146.5848236083984 18.06442642211914 150.7953796386719 20.35897827148438 C 154.82958984375 22.55745315551758 158.58447265625 25.38155746459961 161.9557952880859 28.75287437438965 C 165.3271331787109 32.12421417236328 168.1512451171875 35.87911224365234 170.3496856689453 39.91332244873047 C 172.6442413330078 44.1239013671875 174.156982421875 48.4622688293457 174.8459014892578 52.80795288085938 L 192.5272369384766 164.3414764404297 C 193.8162689208984 172.4725341796875 192.0332183837891 179.8697662353516 187.5065765380859 185.1705627441406 C 183.2289581298828 190.1797180175781 176.8068695068359 192.9383697509766 169.4232940673828 192.9383697509766 Z" stroke="none"/>
              <path d="M 21.285400390625 0.2703094482421875 C 7.28143310546875 0.2703094482421875 -1.72821044921875 10.97016906738281 0.6506195068359375 25.97578430175781 L 18.33193969726562 137.5093231201172 C 20.96693420410156 154.1310272216797 36.57763671875 169.74169921875 53.19940185546875 172.3767242431641 L 164.73291015625 190.0580749511719 C 166.3490142822266 190.3142852783203 167.9150390625 190.4383850097656 169.4232788085938 190.4383850097656 C 183.4272308349609 190.4383850097656 192.4369049072266 179.7384948730469 190.0580749511719 164.73291015625 L 172.3767242431641 53.19940185546875 C 169.74169921875 36.57763671875 154.1310272216797 20.96696472167969 137.5093231201172 18.33193969726562 L 25.97578430175781 0.6506195068359375 C 24.35968017578125 0.3944091796875 22.79364013671875 0.2703094482421875 21.285400390625 0.2703094482421875 M 21.285400390625 -4.72967529296875 C 23.06732177734375 -4.72967529296875 24.90878295898438 -4.580978393554688 26.7586669921875 -4.287704467773438 L 138.2922058105469 13.39361572265625 C 147.3656616210938 14.83203125 156.3973693847656 19.65890502929688 163.7235565185547 26.985107421875 C 171.0497589111328 34.31132507324219 175.8766479492188 43.34304809570312 177.3150482177734 52.41651916503906 L 194.9963989257812 163.9500274658203 C 196.4017944335938 172.8152008056641 194.4170227050781 180.9280242919922 189.4076995849609 186.7940216064453 C 184.6473693847656 192.368408203125 177.5501098632812 195.4383697509766 169.4232940673828 195.4383697509766 C 167.6413726806641 195.4383697509766 165.7999114990234 195.2896728515625 163.9500274658203 194.9963989257812 L 52.41651916503906 177.3150482177734 C 43.34304809570312 175.8766479492188 34.31132507324219 171.0497589111328 26.985107421875 163.7235565185547 C 19.65887451171875 156.3973388671875 14.83200073242188 147.3656463623047 13.39361572265625 138.2921752929688 L -4.287704467773438 26.7586669921875 C -5.693099975585938 17.89349365234375 -3.708328247070312 9.780670166015625 1.300994873046875 3.914642333984375 C 6.061294555664062 -1.659744262695312 13.15855407714844 -4.72967529296875 21.285400390625 -4.72967529296875 Z" stroke="none" fill="#fff"/>
            </g>
          </g>
          <g transform="matrix(0.71, 0.71, -0.71, 0.71, 95.35, -104.81)" filter="url(#Path_2)">
            <path id="Path_2-2" data-name="Path 2" d="M0,0,18.236,18.236,4.991,31.481,23.227,49.717,9.981,62.963" transform="translate(160.33 90.39) rotate(-45)" fill="none" stroke="#fff" stroke-width="10"/>
          </g>
          <g transform="matrix(0.71, 0.71, -0.71, 0.71, 95.35, -104.81)" filter="url(#Path_5)">
            <g id="Path_5-2" data-name="Path 5" transform="translate(62.81 126.79) rotate(-45)" fill="none">
              <path d="M17.572.44,52.094,5.913C63.338,7.7,73.9,18.256,75.681,29.5l13.612,85.863c1.783,11.244-5.888,18.914-17.132,17.132l-34.522-5.473c-11.244-1.783-21.8-12.343-23.587-23.587L.44,17.572C-1.342,6.328,6.328-1.342,17.572.44Z" stroke="none"/>
              <path d="M 14.39893341064453 10.182861328125 C 13.324462890625 10.182861328125 11.87240600585938 10.38336181640625 11.05670928955078 11.33855438232422 C 10.26348876953125 12.26744079589844 9.993789672851562 13.96868896484375 10.31679534912109 16.00611114501953 L 23.92859649658203 101.8692169189453 C 25.04209899902344 108.8933029174805 32.18037796020508 116.0315551757812 39.20448684692383 117.1450805664062 L 73.72670745849609 122.6178894042969 C 74.28057098388672 122.7056884765625 74.81698608398438 122.7518005371094 75.33390808105469 122.7518005371094 C 76.40837860107422 122.7518005371094 77.86043548583984 122.5513000488281 78.67615509033203 121.5960845947266 C 79.46937561035156 120.6671905517578 79.73909759521484 118.9659423828125 79.41609954833984 116.9285507202148 L 65.80429077148438 31.06546783447266 C 64.69076538085938 24.04135894775391 57.55248641967773 16.90308380126953 50.52837753295898 15.78955078125 L 16.00615692138672 10.3167724609375 C 15.45229339599609 10.22897338867188 14.91584777832031 10.182861328125 14.39893341064453 10.182861328125 M 14.39893341064453 0.1828460693359375 C 15.41920471191406 0.1828460693359375 16.47859191894531 0.2667999267578125 17.57184600830078 0.4401092529296875 L 52.0941276550293 5.912887573242188 C 63.33823776245117 7.695411682128906 73.89842987060547 18.25560760498047 75.68096160888672 29.49971771240234 L 89.29276275634766 115.3628005981445 C 90.90195465087891 125.5136566162109 84.80718994140625 132.7518005371094 75.33390045166016 132.7518005371094 C 74.31362152099609 132.7518005371094 73.2542724609375 132.6678619384766 72.16101837158203 132.4945526123047 L 37.63873672485352 127.0217437744141 C 26.39462661743164 125.2392196655273 15.83443450927734 114.6790771484375 14.05193328857422 103.434944152832 L 0.44012451171875 17.57186126708984 C -1.169090270996094 7.420974731445312 4.9256591796875 0.1828460693359375 14.39893341064453 0.1828460693359375 Z" stroke="none" fill="#fff"/>
            </g>
          </g>
          <g transform="matrix(0.71, 0.71, -0.71, 0.71, 95.35, -104.81)" filter="url(#Path_3)">
            <path id="Path_3-2" data-name="Path 3" d="M13.414.169.169,13.414,18.405,31.65,5.16,44.9,23.4,63.132" transform="translate(60.65 165.18) rotate(-45)" fill="none" stroke="#fff" stroke-width="10"/>
          </g>
        </g>
      </g>
    </g>
    <text id="UniHaptic" transform="translate(303.969 208.469)" fill="#515ea4" font-size="100" font-family="HelveticaNeue-Italic, Helvetica Neue" font-style="italic"><tspan x="0" y="0">UniHaptic</tspan></text>
  </g>
</svg>
